<?xml version="1.0" encoding="UTF-8"?>
<svg width="28px" height="28px" viewBox="0 0 28 28" version="1.1" xmlns="http://www.w3.org/2000/svg" xmlns:xlink="http://www.w3.org/1999/xlink">
    <!-- Generator: Sketch 49 (51002) - http://www.bohemiancoding.com/sketch -->
    <title>logo</title>
    <desc>Created with Sketch.</desc>
    <defs></defs>
    <g id="Page-1" stroke="none" stroke-width="1" fill="none" fill-rule="evenodd">
        <g id="logo" fill="#FFFFFF" fill-rule="nonzero">
            <g id="logo-only">
                <path d="M25.3079421,17.4148798 C25.1464498,17.5768912 24.9268105,17.6679937 24.6977084,17.6679937 C24.4686064,17.6679937 24.248967,17.5768912 24.0874748,17.4148798 L21.615477,14.9432153 C21.3067163,14.6023854 21.3193732,14.0802947 21.6442893,13.7547337 L24.085674,11.3131403 C24.4104436,10.9874349 24.9348573,10.9743792 25.2755283,11.283518 L25.3056911,11.314038 L27.7470759,13.7556314 C28.084308,14.0931202 28.084308,14.6389393 27.7470759,14.9764282 L25.3079421,17.4148798 Z M6.46734479,14.998627 L12.9603186,21.5110429 C13.2862137,21.837906 13.8115121,21.8508387 14.1530993,21.5404086 L18.7163889,16.9634203 C18.8785812,16.8005643 19.0989664,16.7090158 19.3288185,16.7090158 C19.5586706,16.7090158 19.7790559,16.8005643 19.9412482,16.9634203 L22.1465369,19.1771448 C22.4844877,19.5170622 22.4844877,20.0660703 22.1465369,20.4059877 L15.2862409,27.2875082 C14.8320454,27.7436047 14.2148636,28 13.5711669,28 C12.9274701,28 12.3102884,27.7436047 11.8560928,27.2875082 L0.709919051,16.1054892 C-0.236639684,15.1538427 -0.236639684,13.6163753 0.709919051,12.6647289 L13.0827594,0.253866875 C13.4086788,-0.073094282 13.934159,-0.0858323393 14.27554,0.224952923 L16.4799252,2.43687024 C16.8490941,2.80730444 16.8490941,3.35672114 16.5106483,3.69643426 L6.46508573,13.7711394 C6.12939402,14.1097015 6.12939402,14.6587095 6.46734479,14.998627 Z" id="椭圆_1_拷贝_17"></path>
            </g>
        </g>
    </g>
</svg>